<svg data-v-20f285ec="" data-v-6916a5e2="" width="16" height="16" viewBox="0 0 4.233 4.233" xmlns="http://www.w3.org/2000/svg" class="small text-icon-black dark:text-icon-white icon"><path data-v-20f285ec="" d="M.794 0H3.44c.44 0 .793.354.793.794V3.44c0 .44-.354.793-.793.793H.794A.792.792 0 0 1 0 3.44V.794C0 .354.354 0 .794 0z" fill="#19212d"></path><path data-v-20f285ec="" d="M2.247.794c-.104 0-.16.057-.16.16v.155l.815 2.33h.807c.104 0 .162-.056.162-.16v-.354c0-.104-.058-.161-.162-.161h-.947V.954c0-.103-.057-.16-.161-.16z" fill="#0af"></path><path data-v-20f285ec="" d="M1.293.794.363 3.44h.722l.158-.458h.786l.154.458h.719L1.976.794zm.114 1.602.225-.733.247.733z" fill="#fff"></path></svg>