<svg data-v-20f285ec="" data-v-6916a5e2="" width="16" height="16" viewBox="0 0 4.233 4.233" xmlns="http://www.w3.org/2000/svg" class="small text-icon-black dark:text-icon-white icon"><path data-v-20f285ec="" d="M.794 0H3.44c.44 0 .793.354.793.794V3.44c0 .44-.354.793-.793.793H.794A.792.792 0 0 1 0 3.44V.794C0 .354.354 0 .794 0z" fill="#1c3867"></path><path data-v-20f285ec="" d="M2.117.926a1.19 1.19 0 0 0-1.19 1.19 1.19 1.19 0 0 0 .015.19c.253.137.612.27 1.026.368.425.101.819.147 1.114.14a1.19 1.19 0 0 0 .225-.697A1.19 1.19 0 0 0 2.117.926zm-1.114 1.61a1.19 1.19 0 0 0 1.114.771 1.19 1.19 0 0 0 .813-.32 6.46 6.46 0 0 1-1.927-.45z" fill="#f0574b"></path><path data-v-20f285ec="" d="M.935 1.522c-.346.017-.669.093-.709.232-.082.286.66.695 1.67.936 1.009.241 1.941.24 2.024-.045.04-.139-.203-.344-.49-.511l-.002.08c.133.099.195.212.172.291-.064.222-.787.238-1.632.037-.845-.2-1.47-.545-1.406-.767.024-.081.153-.149.331-.174z" fill="#f69330"></path></svg>