<?xml version="1.0" encoding="UTF-8"?>
<svg xmlns="http://www.w3.org/2000/svg" xmlns:xlink="http://www.w3.org/1999/xlink" width="16px" height="16px" viewBox="0 0 16 16" version="1.1">
<g id="surface1">
<path style=" stroke:none;fill-rule:nonzero;fill:rgb(25.882353%,52.156863%,95.686275%);fill-opacity:1;" d="M 15.828125 8.179688 C 15.828125 7.652344 15.785156 7.152344 15.703125 6.667969 L 8.171875 6.667969 L 8.171875 9.671875 L 12.484375 9.671875 C 12.289062 10.660156 11.722656 11.492188 10.882812 12.058594 L 10.882812 14.058594 L 13.457031 14.058594 C 14.964844 12.667969 15.828125 10.613281 15.828125 8.179688 Z M 15.828125 8.179688 "/>
<path style=" stroke:none;fill-rule:nonzero;fill:rgb(20.392157%,65.882353%,32.54902%);fill-opacity:1;" d="M 8.171875 16 C 10.328125 16 12.136719 15.28125 13.457031 14.058594 L 10.882812 12.058594 C 10.164062 12.539062 9.25 12.832031 8.171875 12.832031 C 6.082031 12.832031 4.316406 11.425781 3.683594 9.527344 L 1.03125 9.527344 L 1.03125 11.585938 C 2.34375 14.199219 5.042969 16 8.171875 16 Z M 8.171875 16 "/>
<path style=" stroke:none;fill-rule:nonzero;fill:rgb(98.431373%,73.72549%,1.960784%);fill-opacity:1;" d="M 3.683594 9.527344 C 3.515625 9.046875 3.429688 8.535156 3.429688 8 C 3.429688 7.464844 3.523438 6.953125 3.683594 6.472656 L 3.683594 4.414062 L 1.03125 4.414062 C 0.484375 5.492188 0.171875 6.707031 0.171875 8 C 0.171875 9.292969 0.484375 10.507812 1.03125 11.585938 Z M 3.683594 9.527344 "/>
<path style=" stroke:none;fill-rule:nonzero;fill:rgb(91.764706%,26.27451%,20.784314%);fill-opacity:1;" d="M 8.171875 3.167969 C 9.351562 3.167969 10.402344 3.574219 11.238281 4.367188 L 13.515625 2.085938 C 12.136719 0.792969 10.328125 0 8.171875 0 C 5.042969 0 2.34375 1.800781 1.03125 4.414062 L 3.683594 6.472656 C 4.316406 4.574219 6.082031 3.167969 8.171875 3.167969 Z M 8.171875 3.167969 "/>
</g>
</svg>
