<svg data-v-20f285ec="" data-v-6916a5e2="" width="16" height="16" viewBox="0 0 4.233 4.233" xmlns="http://www.w3.org/2000/svg" class="small text-icon-black dark:text-icon-white icon"><path data-v-20f285ec="" d="M.794 0H3.44c.44 0 .793.354.793.794V3.44c0 .44-.354.793-.793.793H.794A.792.792 0 0 1 0 3.44V.794C0 .354.354 0 .794 0z" fill="#493c47"></path><path data-v-20f285ec="" d="M1.551.266a.107.107 0 0 0-.079.018c-.008.005-.013.011-.02.018L1.44.32a.732.732 0 0 0-.121.527 1.284 1.284 0 0 0-.12.071c-.007.005-.065.045-.11.087A.74.74 0 0 0 .554.928L.532.933C.524.937.515.94.509.945a.109.109 0 0 0-.03.148v.003l.006.008c.088.12.188.225.296.318l.003.003c.07.06.203.146.3.181 0 0 .6.231.63.245.012.004.03.01.037.01a.106.106 0 0 0 .125-.084.274.274 0 0 0 .003-.038V1.06a1.211 1.211 0 0 0-.061-.345L1.816.71a1.836 1.836 0 0 0-.19-.39L1.623.31 1.62.308a.106.106 0 0 0-.069-.042zM1.533.43c.057.095.105.193.143.296a1.314 1.314 0 0 0-.224.06.605.605 0 0 1 .081-.356zm1.102.558a1.17 1.17 0 0 0-.588.126c-.01.005-.022.01-.033.017v.605c0 .008 0 .04-.005.066a.238.238 0 0 1-.246.193.399.399 0 0 1-.095-.021l-.525-.204a1.429 1.429 0 0 0-.05-.02c-.194.165-.399.361-.59.592l-.011.013a.108.108 0 0 0 0 .123.11.11 0 0 0 .083.047.105.105 0 0 0 .065-.018 3.096 3.096 0 0 1 .668-.364.11.11 0 0 1 .127.02c.037.038.039.1.007.14l-.036.06a3.13 3.13 0 0 0-.304.665l-.005.019v.001a.1.1 0 0 0 .016.084.11.11 0 0 0 .085.046.101.101 0 0 0 .064-.019.144.144 0 0 0 .024-.021c.001-.004.005-.007.006-.01a2.93 2.93 0 0 1 .273-.332 3.11 3.11 0 0 1 1.666-.929c.005-.002.01-.001.015-.001a.067.067 0 0 1 .063.07.065.065 0 0 1-.052.06c-.603.129-1.69.845-1.31 1.885a.318.318 0 0 0 .02.041.11.11 0 0 0 .083.047c.018 0 .07-.005.102-.062.061-.116.177-.246.513-.385.935-.387 1.09-.94 1.106-1.291v-.02A1.19 1.19 0 0 0 2.635.988zm-1.92.06a.592.592 0 0 1 .268.06 1.164 1.164 0 0 0-.138.188 1.803 1.803 0 0 1-.224-.24.602.602 0 0 1 .094-.009zm1.367 2.01c.194.314.533.34.533.34-.347.145-.484.288-.557.404a1.016 1.016 0 0 1 .024-.744z" fill="#e75e45"></path></svg>