<svg width="16" height="16" viewBox="0 0 4.233 4.233"
     xmlns="http://www.w3.org/2000/svg">
    <path
            d="M.794 0H3.44c.44 0 .793.354.793.794V3.44c0 .44-.354.793-.793.793H.794A.792.792 0 0 1 0 3.44V.794C0 .354.354 0 .794 0z"
            fill="#2e51a2"></path>
    <path
            d="M1.935 2.997a1.459 1.459 0 0 1-.149-.378 1.074 1.074 0 0 1-.032-.317.99.99 0 0 1 .037-.325c.077-.286.267-.479.53-.538.085-.019.155-.023.345-.023h.17l.083.295-.461.004-.042.014a.385.385 0 0 0-.225.195.582.582 0 0 0-.048.126c.128.01.212.006.36.006v-.297h.376v1.059h-.381v-.466h-.212c-.206 0-.212 0-.212.01a1.274 1.274 0 0 0 .152.458c-.007.008-.266.195-.27.197-.004.001-.013-.008-.02-.02zM.265 1.416H.6l.3.428.303-.428h.336v1.402H1.2l-.002-.85-.302.378-.291-.383-.003.855H.265zm2.9.005h.333v1.095l.47.003-.073.291-.73.003z"
            fill="#fff"></path>
</svg>
